PathFileType	4	(X/Y/Z)	RBDS09\RBDS09runT45.trc
DataRate	CameraRate	NumFrames	NumMarkers	Units	OrigDataRate	OrigDataStartFrame	OrigNumFrames
150.000000	150.000000	6	33	mm	150.000000	2250	4500
Frame#	Time	L.ASIS			L.Heel.Bottom			L.Heel.Lateral			L.Heel.Top			L.Iliac.Crest			L.MT1			L.MT5			L.PSIS			L.Shank.Bottom.Lateral			L.Shank.Bottom.Medial			L.Shank.Top.Lateral			L.Shank.Top.Medial			L.Thigh.Bottom.Lateral			L.Thigh.Bottom.Medial			L.Thigh.Top.Lateral			L.Thigh.Top.Medial			R.ASIS			R.ASY			R.Heel.Bottom			R.Heel.Lateral			R.Heel.Top			R.Iliac.Crest			R.MT1			R.MT5			R.PSIS			R.Shank.Bottom.Lateral			R.Shank.Bottom.Medial			R.Shank.Top.Lateral			R.Shank.Top.Medial			R.Thigh.Bottom.Lateral			R.Thigh.Bottom.Medial			R.Thigh.Top.Lateral			R.Thigh.Top.Medial			
		X1	Y1	Z1	X2	Y2	Z2	X3	Y3	Z3	X4	Y4	Z4	X5	Y5	Z5	X6	Y6	Z6	X7	Y7	Z7	X8	Y8	Z8	X9	Y9	Z9	X10	Y10	Z10	X11	Y11	Z11	X12	Y12	Z12	X13	Y13	Z13	X14	Y14	Z14	X15	Y15	Z15	X16	Y16	Z16	X17	Y17	Z17	X18	Y18	Z18	X19	Y19	Z19	X20	Y20	Z20	X21	Y21	Z21	X22	Y22	Z22	X23	Y23	Z23	X24	Y24	Z24	X25	Y25	Z25	X26	Y26	Z26	X27	Y27	Z27	X28	Y28	Z28	X29	Y29	Z29	X30	Y30	Z30	X31	Y31	Z31	X32	Y32	Z32	X33	Y33	Z33	

2251	15	2382.163273203419	908.7636795689908	894.7841036812314	1790.321492559187	526.3643566951082	1012.705430727686	1795.179306345399	497.4203518034976	964.1619737874424	1835.130000335578	507.2598611424831	1004.157368883174	2332.223141373332	984.4668079174812	868.0803821725692	1751.761694609409	311.9347067564157	1013.992660057664	1743.635685136819	366.6337422797781	917.8613959982482	2219.303445591308	944.3105278133695	973.2525236849261	1906.314988823947	459.2639454820327	925.3637911203571	1907.101484949636	494.4025981611977	966.0676775491819	1983.578872984106	474.3288603290688	909.6638158196064	1985.263492185008	509.191553775347	950.2863848455569	2218.748844809453	549.4454659682	879.6859037664157	2182.050234026059	557.3659512230805	942.5716856307317	2222.582593855699	659.7451481483058	869.8590407329008	2190.274924987843	667.3159425058776	931.1124042940952	2370.634725728049	922.1918372364964	1129.204210233079	2548.533904643823	88.57966532433353	1081.494657456631	2382.626179131946	25.73909099876238	1040.960475112481	2409.632100155165	45.88708738999807	1090.277656177504	2394.399068198747	72.93927865455754	1041.343127849274	2295.464661670046	970.9521301150459	1175.00509107535	2595.936351684403	49.64683982297626	1041.395268251896	2545.403840543677	33.36991037765165	1141.057662121876	2210.231993564334	945.2754745323747	1049.182128055656	2421.104486620682	160.7031251910471	1104.806855310424	2403.887852686709	169.6578163594078	1057.253773569695	2409.625523611515	242.5021263066107	1121.32304326455	2393.128233468162	247.7941372288212	1071.138999219415	2431.70491367155	552.4615345507	1166.492680928085	2380.652583763816	522.8231677547715	1124.102449997464	2369.461208667875	642.6278338151596	1177.518526447044	2321.470812287871	615.2653661091072	1137.344869555445	
2252	15.00666666666667	2380.734290425756	905.6346278848464	896.6106820259708	1809.394237049043	530.4310700984744	1011.726488904823	1814.233543758291	501.4837710009199	963.2636241644901	1854.069441053704	510.8507792909596	1003.778997616586	2332.040407437263	979.7606031424289	868.0850119566618	1769.016674282356	316.0786207701801	1012.598145560805	1761.862869356618	370.9986412564264	916.4263772704055	2216.753092924353	940.7258184150069	972.9265310994882	1925.178599633615	461.2819791971858	924.2817300183606	1927.057707323504	496.1067545294447	965.2368037013089	2002.738414113446	474.3976778345879	908.412545061604	2005.522301662944	508.8130360441017	949.377817827279	2230.4276432125	543.0471225306154	878.2391803498487	2192.9161345249	548.3220380348599	940.8498789204237	2228.946615782152	653.5081202724404	869.7849791917606	2196.037874674763	658.6394166166002	930.9015810719861	2367.598574954873	919.8364153113838	1130.974428537322	2520.55604753426	86.38670998653616	1078.903869120614	2353.160281910781	26.23058301899289	1039.773641643462	2380.429224568668	47.03043171250124	1088.676822474309	2366.318150439999	73.41348597667312	1038.92312358885	2293.96853093665	966.5360699337764	1175.808659916935	2567.754248064562	45.85568541147656	1040.250115752229	2515.630728421136	33.14567062145625	1140.44848397163	2207.421556713033	942.1544684353918	1048.834920254552	2398.742975028298	160.8984405500941	1103.039652221552	2381.322881818939	170.9155452370461	1055.748717686879	2392.095671892031	243.1695459153211	1119.898564525388	2375.279920080501	249.5227146469533	1069.962393930507	2426.737171342497	549.4980689668837	1166.098053030644	2375.862932985203	520.6755563017936	1122.900515920199	2365.051464894631	640.0950345589896	1177.410894898406	2317.153818689356	613.3270453214702	1136.803084595365	
2253	15.01333333333333	2378.904149261907	903.1057362213137	898.466157457843	1828.26386405273	532.3547949222235	1009.854666618491	1833.489232482031	503.2625127382192	961.6221206042657	1872.97058263633	512.7092061004714	1002.688892904848	2331.543495255946	975.8132654645093	868.1261856957217	1788.13237222118	317.9149452913808	1011.301205892244	1781.669856685767	372.5198052687716	914.8272113755968	2213.938356429267	937.9787266831747	972.7549326365452	1944.73031437574	462.1835338782284	922.8954423847264	1947.396962368922	496.6883800451114	964.0985917196645	2022.487292627703	473.9022931524993	906.9450760815531	2026.097245700435	507.8382332779559	948.2819052693291	2242.627392607163	537.942087736652	876.5327456143599	2204.286733018336	540.4241113410008	938.7416342240961	2235.647294096741	648.2457532454511	869.5281344560693	2202.085062023891	650.8187048655741	930.3768067937156	2364.507091202067	918.0754428032438	1132.777558326323	2491.179148250878	85.01137952299629	1077.177274350053	2322.662387026124	26.9612875956184	1039.260116755043	2350.129274538387	48.30411689212196	1087.844481916869	2336.868973172622	74.14590891997091	1037.46711958337	2292.412064606573	962.969912591971	1176.545922821446	2538.216892397489	43.38798346516128	1039.756682506991	2484.879742661726	33.39738200547561	1140.36199051569	2204.546152389469	939.7651267473453	1048.628526832445	2375.140584309011	161.8622673054578	1102.168228024913	2357.501924871076	172.9077505803983	1055.158538888195	2373.436007114557	244.4666731767672	1119.254003536811	2356.263290803984	251.8240365418627	1069.589938213759	2421.069029656673	546.73729248675	1165.951593689588	2370.255216790627	518.8186754531025	1122.012670069922	2360.198101668841	637.9349615388006	1177.500205762708	2312.27027807378	611.8183682932546	1136.523971651093	
2254	15.02	2376.695337296188	901.3567858459959	900.2146439324614	1846.693946065701	532.1631977514893	1007.117040009017	1852.708452663743	502.7904283625488	959.2479451618952	1891.604612394121	512.8681555998538	1000.853808801274	2330.427664453819	972.8745264160325	868.1908176925963	1808.880833056415	317.4614548255541	1010.136495786121	1802.82229983071	371.2301951734939	913.1000954374002	2210.96235893806	936.1384806028043	972.8232690765013	1964.753475085151	461.9955613064001	921.200217390259	1967.853348468779	496.2332900355519	962.6080949933369	2042.629382461394	472.9291080550436	905.2560456892556	2046.741574936874	506.4197500216214	946.9460594712187	2255.309270430233	534.2808885891826	874.6183201799334	2216.186241149681	533.8417403645019	936.3268251817028	2242.666451303298	644.0838963981959	869.0839351521411	2208.440604451158	643.9976962210364	929.5461441711905	2361.522702530624	916.9645761349838	1134.531952796604	2460.912415724837	84.3144254710629	1076.276685525013	2291.614733590666	27.84580552675934	1039.298490784657	2319.221503648194	49.57944734605761	1087.674521294537	2306.537229541741	75.04742290823717	1036.885628371909	2290.755107648857	960.4184973212932	1177.204028088712	2507.806315449247	42.09529612887969	1039.835964681107	2453.641965500093	33.91494772246118	1140.702229129706	2201.743633379957	938.1789646159144	1048.646497226861	2350.57125448151	163.36379073039	1102.109810623573	2332.743978247479	175.3860218756668	1055.380887973142	2353.743239963848	246.1199563432382	1119.318175558505	2336.218047599426	254.4108391864726	1069.93080819322	2414.46914727953	544.0693391571631	1166.09162948438	2363.536356967389	517.1731606329772	1121.55254900099	2354.78953452355	636.0973924435174	1177.806221729026	2306.654585241698	610.7306699514711	1136.576855997437	
2255	15.02666666666667	2374.162141654161	900.5275877431899	901.7306309329975	1864.531912557048	529.8786381568731	1003.639341325963	1871.713142881772	500.1344523149877	956.2302919689322	1909.812286374958	511.3502065319533	998.3210732910318	2328.436192691347	971.1100898530499	868.2833430437455	1831.0559352939	314.7694982132221	1009.088177501315	1825.09998987717	367.2577107966343	911.2701498706161	2207.945741790677	935.222627033074	973.2162354436174	1985.038376767119	460.7513367109786	919.2206320389084	1988.182348953443	494.8135641689846	960.7612747696259	2062.958496937524	471.5618742670291	903.363638519492	2067.210026853284	504.6923754251729	945.3497649898786	2268.41353372055	532.178523114439	872.5694351731897	2228.617370264139	528.7227545502645	933.7124358455469	2249.977243676768	641.1239435787605	868.4627151906421	2215.126656785101	638.3027189357625	928.4419304916173	2358.811625497104	916.514610665871	1136.154612811619	2430.183971261468	84.1350696668953	1076.086001769237	2260.375841126728	28.83750934720177	1039.732372397044	2288.080954657928	50.78725560541929	1088.011457964914	2275.722698486297	76.0670875337624	1037.014359516001	2288.990399567613	958.9803363963925	1177.785811838718	2476.915176696586	41.73723605226955	1040.359393888049	2422.280329739078	34.51245202752351	1141.346555062391	2199.152239619693	937.4273663577637	1048.972078261133	2325.251756330101	165.1894744547268	1102.701524723177	2307.307438928551	178.1262776512355	1056.234646985517	2333.081950789539	247.8929667398093	1119.951749445747	2315.257779736396	257.0422552486485	1070.824207904518	2406.745182815279	541.4198017130778	1166.524597151739	2355.463845302804	515.6917394164605	1121.599895893815	2348.730347120358	634.5430370695071	1178.330152244203	2300.170706018302	610.0664475165685	1137.008720020235	
2256	15.03333333333333	2371.388859822398	900.7072840320714	902.9168563089517	1881.711431090687	525.5145382184133	999.6311766658274	1890.389766422078	495.3864647781364	952.728207237926	1927.50574717178	508.1648505916942	995.2166241499859	2325.398565280783	970.5827509826762	868.4282105445302	1854.484751349986	309.9222779569268	1008.089734340926	1848.307881774165	360.8147759685613	909.3468806287734	2205.014470904511	935.2002277997992	974.0008407226881	2005.390173972368	458.4896709390932	917.0104095111614	2008.172758721926	492.4814384019666	958.5990428899768	2083.26588382863	469.8753894310304	901.3116346842888	2087.270163861112	502.7604137221873	943.5113872605091	2281.860685339419	531.7103927286865	870.4704555160744	2241.554875770599	525.1885615381817	931.0187639547892	2257.547651975786	639.4407612772019	867.6858689661102	2222.159626491845	633.8409644097829	927.1138130646808	2356.525046311995	916.696868530489	1137.574738861198	2399.325960414307	84.31609847051922	1076.437787755794	2229.181719807041	29.94021283562489	1040.391565512028	2256.966688819148	51.92493854236113	1088.674430702551	2244.731206722809	77.2027116800997	1037.644910305337	2287.148410913773	958.6778930344897	1178.309774073659	2445.834244080721	42.02597813756878	1041.167162578294	2391.027803088624	35.04636819313179	1142.159446588149	2196.8964584097	937.5016921953111	1049.671951979055	2299.342089407995	167.1786483702949	1103.728337643916	2281.38721850509	180.9619970688206	1057.488809901468	2311.49230375289	249.6232635178306	1120.969589604745	2293.47403802522	259.5571010787507	1072.063186791473	2397.761370378744	538.768432719054	1167.222679932833	2345.872622208426	514.3787519783565	1122.18424107147	2341.950585084281	633.257148177139	1179.053180721723	2292.729017366742	609.8512277691614	1137.832819381288	
